<svg width="42" height="56" viewBox="0 0 42 56" fill="none" xmlns="http://www.w3.org/2000/svg">
  <!-- Drop shadow -->
  <defs>
    <filter id="shadow_bh" x="0" y="2" width="42" height="56" filterUnits="userSpaceOnUse" color-interpolation-filters="sRGB">
      <feDropShadow dx="0" dy="1" stdDeviation="1.5" flood-color="#000" flood-opacity="0.25"/>
    </filter>
  </defs>
  <!-- Pin shape -->
  <g filter="url(#shadow_bh)">
    <path d="M21 52C21 52 38 34 38 20C38 10.6112 30.3888 3 21 3C11.6112 3 4 10.6112 4 20C4 34 21 52 21 52Z" fill="#000091"/>
    <path d="M21 52C21 52 38 34 38 20C38 10.6112 30.3888 3 21 3C11.6112 3 4 10.6112 4 20C4 34 21 52 21 52Z" stroke="#000070" stroke-width="0.5"/>
  </g>
  <!-- White circle background -->
  <circle cx="21" cy="20" r="12" fill="white"/>
  <!-- Bed icon -->
  <g transform="translate(12, 12)" stroke="#000091" stroke-width="1.5" fill="none" stroke-linecap="round" stroke-linejoin="round">
    <!-- Bed frame -->
    <line x1="1" y1="14" x2="1" y2="5"/>
    <line x1="1" y1="14" x2="17" y2="14"/>
    <line x1="17" y1="14" x2="17" y2="9"/>
    <path d="M1 9 L1 9 Q1 7 3 7 L17 7 L17 9 L1 9Z" fill="#000091" opacity="0.2"/>
    <line x1="1" y1="9" x2="17" y2="9"/>
    <!-- Pillow -->
    <rect x="3" y="5" width="4" height="3" rx="1" fill="#000091" opacity="0.3"/>
  </g>
</svg>
