<svg width="129" height="114" viewBox="0 0 129 114" fill="none" xmlns="http://www.w3.org/2000/svg">
<rect width="33" height="12" transform="translate(12 12)" fill="white"/>
<path d="M22.6562 22.5498C22.6602 22.5498 22.6642 22.5439 22.6642 22.5439C22.696 22.5203 22.7279 22.4909 22.7558 22.4556C22.7518 22.4556 22.7478 22.4556 22.7438 22.4498C22.7159 22.4792 22.6841 22.5145 22.6562 22.5498Z" fill="#000091"/>
<path d="M27.0694 21.0629L26.9997 21.1229C27.0396 21.1129 27.0694 21.1029 27.0694 21.0629Z" fill="#000091"/>
<path fill-rule="evenodd" clip-rule="evenodd" d="M25.6426 22.5817C25.7704 22.4532 25.8983 22.3168 26.0261 22.1765H26.0222C26.2624 21.9038 26.4948 21.6428 26.7737 21.4051C26.8589 21.3272 26.9402 21.261 27.0177 21.2064C27.0291 21.195 27.0349 21.1779 27.0406 21.1612C27.0465 21.1438 27.0523 21.1268 27.0642 21.1168C27.009 21.1379 26.965 21.1712 26.9207 21.2047C26.8749 21.2394 26.8289 21.2742 26.7698 21.296C26.7466 21.296 26.7233 21.2727 26.7466 21.2493C26.8279 21.1908 26.9092 21.1285 26.9867 21.0662H26.9712C26.948 21.0662 26.948 21.0428 26.948 21.0194C26.6596 20.9736 26.4381 21.1708 26.2399 21.3473L26.2275 21.3584C26.1966 21.3739 26.1675 21.3585 26.1446 21.3464C26.133 21.3403 26.123 21.335 26.1152 21.335C25.9398 21.3938 25.7885 21.5022 25.6362 21.6114C25.4959 21.7119 25.3548 21.813 25.1933 21.8765V21.8298C25.1384 21.8487 25.0842 21.8734 25.0298 21.8981C24.9498 21.9345 24.8696 21.971 24.7865 21.9895C24.6349 22.0247 24.4943 22.0202 24.358 22.0158C24.3133 22.0143 24.2689 22.0129 24.2249 22.0129C23.9768 22.0375 23.7319 22.0906 23.4872 22.1437L23.4076 22.161C23.4037 22.1629 23.3998 22.1639 23.3959 22.1649C23.3921 22.1658 23.3882 22.1668 23.3843 22.1688C23.2371 22.2077 23.1016 22.2623 22.966 22.3402L22.9505 22.348C22.9452 22.3551 22.9398 22.3614 22.9349 22.3673C22.929 22.3743 22.9237 22.3806 22.9195 22.3869C22.873 22.4415 22.8304 22.4882 22.7646 22.5233C22.6673 22.5722 22.5832 22.6476 22.5005 22.7219C22.4647 22.754 22.429 22.7861 22.3927 22.8155C22.385 22.8233 22.3695 22.8272 22.3578 22.8272C22.2378 22.9441 22.1177 23.061 21.9937 23.1739C21.986 23.1817 21.9511 23.1856 21.924 23.1817C21.924 23.1817 21.9279 23.1817 21.9279 23.1778L21.9395 23.1545L21.9976 23.061C22.0092 23.0434 22.0199 23.0259 22.0305 23.0084C22.0412 22.9908 22.0518 22.9733 22.0634 22.9558C22.0944 22.909 22.1255 22.8622 22.1603 22.8194C22.168 22.8077 22.168 22.796 22.1603 22.7882C22.1525 22.7804 22.1409 22.7765 22.1293 22.7765C22.2416 22.6675 22.3733 22.5739 22.5089 22.4921V22.4882C22.4934 22.4921 22.4702 22.4804 22.4818 22.4649C22.4932 22.4506 22.5024 22.4342 22.5112 22.4188L22.5205 22.4025C22.5225 22.3986 22.5234 22.3957 22.5244 22.3928C22.5254 22.3899 22.5263 22.3869 22.5283 22.383C22.5263 22.3791 22.5234 22.3762 22.5205 22.3733C22.5176 22.3704 22.5147 22.3675 22.5128 22.3636L22.4893 22.3791C22.4612 22.3974 22.4324 22.4163 22.4082 22.4376C22.3911 22.4523 22.3751 22.4725 22.3588 22.4932C22.3232 22.5382 22.2857 22.5856 22.23 22.5856C22.2261 22.5856 22.2068 22.5856 22.1952 22.5817C22.1835 22.5817 22.1758 22.5778 22.1719 22.5739C22.1719 22.572 22.1719 22.571 22.1724 22.5705C22.1729 22.57 22.1738 22.57 22.1758 22.57C22.1758 22.57 22.1797 22.5662 22.1797 22.5623C22.1797 22.5623 22.1797 22.5584 22.1835 22.5584C22.1855 22.5545 22.1874 22.5515 22.1893 22.5486C22.1913 22.5457 22.1932 22.5428 22.1952 22.5389C22.1971 22.535 22.199 22.5321 22.201 22.5291C22.2029 22.5262 22.2048 22.5233 22.2068 22.5194C22.2087 22.5175 22.2097 22.5145 22.2106 22.5116C22.2116 22.5087 22.2126 22.5058 22.2145 22.5038L22.2189 22.4958C22.2227 22.4889 22.2273 22.4808 22.23 22.4726C22.2319 22.4688 22.2339 22.4658 22.2358 22.4629C22.2378 22.46 22.2397 22.4571 22.2416 22.4532C22.2474 22.4454 22.2523 22.4366 22.2571 22.4278C22.262 22.4191 22.2668 22.4103 22.2726 22.4025C22.2765 22.3947 22.2804 22.3869 22.2881 22.3791C22.292 22.3713 22.2959 22.3645 22.2997 22.3577C22.3036 22.3509 22.3075 22.3441 22.3114 22.3363C22.323 22.3168 22.3114 22.3012 22.2959 22.2973C22.3385 22.2428 22.3888 22.196 22.4508 22.161H22.4431C22.4965 22.1341 22.5515 22.1026 22.6062 22.0713C22.6384 22.0528 22.671 22.0341 22.7026 22.0168C22.7142 22.0051 22.7258 21.9934 22.7413 21.9856C22.6135 22.0285 22.4973 22.0869 22.385 22.1649C22.385 22.1649 22.354 22.1765 22.3462 22.1843C22.3462 22.1843 22.323 22.1921 22.292 22.1649C22.2881 22.161 22.2881 22.1571 22.2881 22.1493C22.3016 22.1222 22.3293 22.1043 22.3594 22.0849C22.3812 22.0708 22.4041 22.056 22.4237 22.0363C22.4469 22.0363 22.4663 22.0363 22.4663 22.0597C22.9124 21.7099 23.4625 21.6289 24.0144 21.5477C24.3539 21.4978 24.6941 21.4478 25.0112 21.335C25.0441 21.3116 25.078 21.2892 25.1119 21.2668C25.1458 21.2444 25.1797 21.222 25.2126 21.1986C25.2691 21.1751 25.3198 21.1348 25.3734 21.0922C25.4263 21.0501 25.4822 21.0056 25.5496 20.9727C25.7278 20.8363 25.8634 20.6805 25.9331 20.4506C25.9331 20.4272 25.9099 20.4038 25.9099 20.4038C25.6155 20.7194 25.2785 20.9688 24.9182 21.1519C24.5747 21.3331 24.2067 21.36 23.8423 21.3866C23.7054 21.3966 23.569 21.4065 23.4347 21.4246C23.4579 21.3778 23.5044 21.3779 23.547 21.3779C23.547 21.3225 23.5735 21.2987 23.6075 21.2682C23.6166 21.26 23.6263 21.2514 23.6361 21.2415H23.702C23.7136 21.2415 23.7194 21.2298 23.7252 21.2181C23.731 21.2064 23.7368 21.1947 23.7484 21.1947C23.7949 21.1947 23.8608 21.1714 23.8375 21.1714C23.802 21.1257 23.7504 21.1438 23.6934 21.1637C23.6386 21.1829 23.5789 21.2038 23.5238 21.1714C23.5443 21.1489 23.5504 21.1219 23.556 21.0974C23.5621 21.0708 23.5675 21.0471 23.5896 21.035H23.6787C23.6787 20.9882 23.7252 20.9454 23.7252 20.9454C23.9272 20.8239 24.1223 20.7179 24.3137 20.6138C24.4416 20.5443 24.568 20.4756 24.6936 20.4038C24.6682 20.4038 24.6456 20.4143 24.6238 20.4244C24.589 20.4406 24.5558 20.4559 24.5154 20.4272C24.5386 20.4272 24.5386 20.4107 24.5386 20.3941C24.5386 20.3775 24.5386 20.361 24.5619 20.361C24.7072 20.3222 24.8365 20.2592 24.9686 20.195C25.0619 20.1496 25.1565 20.1036 25.2591 20.0649C25.2287 20.0649 25.2005 20.0731 25.173 20.0811C25.1201 20.0964 25.0699 20.111 25.0112 20.0649C25.0266 20.0571 25.039 20.0473 25.0513 20.0375C25.076 20.0178 25.1002 19.9986 25.1468 19.9986V19.9324C25.1468 19.909 25.17 19.909 25.1933 19.909C25.17 19.909 25.1468 19.8857 25.1468 19.8857C25.1591 19.8609 25.1833 19.8558 25.2103 19.8501C25.2343 19.8451 25.2605 19.8396 25.2824 19.8194C25.2591 19.8194 25.2165 19.8194 25.2165 19.796C25.2824 19.7064 25.3947 19.6831 25.507 19.6597C25.4954 19.6363 25.4731 19.6363 25.4538 19.6363C25.4344 19.6363 25.4179 19.6363 25.4179 19.6129C25.4179 19.5896 25.4412 19.5896 25.4644 19.5896H25.4179C25.3815 19.5712 25.3879 19.5385 25.3924 19.5158C25.3936 19.5096 25.3947 19.5041 25.3947 19.4999C25.4857 19.3927 25.5156 19.2662 25.5454 19.1404C25.5599 19.0788 25.5745 19.0173 25.5961 18.9584C25.5729 18.9584 25.5496 18.9584 25.5496 18.935C25.3318 19.1767 24.9866 19.2683 24.6587 19.3554L24.6277 19.3636H24.5154C24.4031 19.4103 24.2443 19.4103 24.1319 19.3402C24.0785 19.3122 24.0404 19.2771 23.9993 19.2393C23.9718 19.214 23.9429 19.1875 23.9073 19.161C23.7252 19.048 23.547 18.9584 23.3456 18.8883C22.7839 18.709 22.199 18.6155 21.6141 18.6389C21.7775 18.5491 21.9509 18.5133 22.1266 18.4771C22.2176 18.4584 22.3093 18.4395 22.4004 18.4129C22.458 18.396 22.515 18.3785 22.5716 18.3611C22.8929 18.2626 23.2046 18.1671 23.547 18.187C23.5022 18.1711 23.4448 18.1768 23.392 18.1821C23.3672 18.1846 23.3434 18.187 23.3224 18.187C23.0634 18.1677 22.8019 18.2253 22.529 18.2855C22.4712 18.2982 22.4129 18.3111 22.354 18.3233C22.2471 18.3456 22.1455 18.3775 22.0437 18.4095C21.9315 18.4448 21.8191 18.4801 21.6993 18.5025C21.6474 18.5205 21.6056 18.551 21.565 18.5807C21.4996 18.6285 21.437 18.6743 21.3391 18.6623V18.5922C21.5638 18.3194 21.8349 18.0506 22.1952 18.0272C22.5434 17.9705 22.8717 18.0109 23.2142 18.053C23.2718 18.0601 23.3297 18.0673 23.3882 18.074C23.669 18.0966 23.9317 18.1592 24.2148 18.2267L24.2443 18.2337C24.3062 18.2337 24.3411 18.2883 24.3748 18.3411C24.4023 18.384 24.429 18.4258 24.4689 18.4363C24.5241 18.4553 24.5792 18.4589 24.6344 18.4624C24.7148 18.4676 24.7952 18.4728 24.8756 18.5259C24.8756 18.5102 24.873 18.4949 24.8704 18.4798C24.8653 18.4499 24.8602 18.4206 24.8756 18.3896C24.9256 18.3393 24.9829 18.3528 25.0393 18.3661C25.0834 18.3764 25.127 18.3867 25.1662 18.3662C25.289 18.29 25.1738 18.1729 25.0585 18.0558C25.0029 17.9993 24.9472 17.9428 24.9182 17.8909C24.9182 17.8675 24.9415 17.8441 24.9415 17.8441C24.9924 17.8897 25.0398 17.9369 25.0867 17.9837C25.2043 18.1008 25.3194 18.2153 25.4799 18.2961C25.5922 18.3428 25.8634 18.409 25.8169 18.2727C25.7373 18.0961 25.6014 17.9429 25.4642 17.7883C25.4077 17.7246 25.351 17.6607 25.2979 17.5948V17.5052C25.2625 17.5052 25.2541 17.4917 25.2435 17.4749C25.2402 17.4696 25.2367 17.464 25.232 17.4584V17.3688C25.1752 17.339 25.1625 17.2918 25.1497 17.2443C25.1424 17.2173 25.1351 17.1902 25.1197 17.1662C25.0808 17.1033 25.0781 17.0259 25.0752 16.946C25.0729 16.8825 25.0705 16.8175 25.0499 16.7571C25.0035 16.6207 24.9841 16.5078 24.9609 16.3714C24.9356 16.2319 24.9079 16.0985 24.8807 15.9679C24.8328 15.7374 24.7866 15.5157 24.7594 15.2844C24.7236 14.9538 24.8905 14.6743 25.0612 14.3885C25.1118 14.3037 25.1627 14.2185 25.2088 14.1312C25.3676 13.8584 25.5458 13.5896 25.8401 13.4065C25.9044 13.1405 26.0791 12.919 26.253 12.6985L26.2662 12.6818C26.4379 12.4679 26.7245 12.3371 26.9357 12.2408L26.9596 12.2299C27.2734 12.0896 27.5561 12 27.56 12H12V23.996H23.0396C23.3348 23.782 23.6283 23.6469 23.9775 23.4862C24.1369 23.4129 24.3079 23.3342 24.496 23.2402C24.5359 23.2201 24.5832 23.1968 24.6357 23.171C24.951 23.0159 25.4534 22.7687 25.6426 22.5817ZM22.1396 20.9633C22.0958 20.9677 22.0494 20.9723 22.0669 20.9372C22.0832 20.8583 22.1639 20.8347 22.2428 20.8116C22.2765 20.8017 22.31 20.7919 22.3378 20.7779L22.3505 20.7714L22.3598 20.7664C22.4035 20.7432 22.457 20.7148 22.4965 20.7313C22.5231 20.7692 22.5561 20.779 22.5881 20.7884C22.612 20.7955 22.6353 20.8024 22.6551 20.8207C22.5714 20.9047 22.4737 20.913 22.3747 20.9214C22.3089 20.9269 22.2425 20.9326 22.1791 20.9605C22.1678 20.9605 22.1538 20.9619 22.1396 20.9633ZM18.7126 20.4154C18.7126 20.4388 18.7359 20.4622 18.7359 20.4622C19.2782 19.8505 19.7701 19.3284 20.4673 18.8959C20.486 18.8881 20.4791 18.8979 20.4698 18.9109C20.4561 18.9302 20.4373 18.9567 20.4906 18.9427C20.7214 18.8901 20.8251 18.6923 20.9259 18.5C20.952 18.4502 20.9779 18.4008 21.0058 18.3544C21.1115 18.1823 21.2618 18.0721 21.4132 17.9611C21.5223 17.881 21.6321 17.8004 21.7262 17.696C21.7262 17.7193 21.7262 17.7427 21.703 17.7661C21.7262 17.7895 21.7495 17.7895 21.7727 17.7895C21.8136 17.7586 21.8582 17.7459 21.901 17.7336C21.9555 17.718 22.007 17.7033 22.0439 17.6531C21.8657 17.583 21.6372 17.5596 21.459 17.6297C20.9864 17.8557 20.5836 18.218 20.2001 18.6271C19.9677 18.8726 19.7275 19.1024 19.4331 19.2622C19.2317 19.6674 19.007 20.0297 18.7126 20.4154ZM20.6037 18.9664C20.5916 18.9908 20.5794 19.0035 20.5678 19.0156C20.5573 19.0266 20.5471 19.0372 20.5379 19.0557C20.5147 19.1023 20.4915 19.1217 20.4489 19.145C20.4257 19.145 20.4025 19.145 20.4025 19.1217C20.4257 19.0324 20.4915 18.9431 20.5805 18.9198C20.6037 18.9237 20.6037 18.947 20.6037 18.9664ZM21.5942 22.4264C21.6136 22.4069 21.6368 22.3835 21.6484 22.3601C21.6677 22.3134 21.5478 22.3251 21.5284 22.3368C21.5109 22.3509 21.4997 22.365 21.4862 22.3821L21.482 22.3874C21.4659 22.406 21.447 22.4232 21.4278 22.4406C21.4148 22.4525 21.4016 22.4644 21.3891 22.477C21.3349 22.5316 21.2808 22.5861 21.2227 22.6368C21.184 22.6718 21.3078 22.6874 21.3349 22.664C21.3659 22.6407 21.393 22.6134 21.4201 22.5861C21.4304 22.5861 21.4407 22.5844 21.4476 22.5832L21.4523 22.5825L21.4549 22.5822C21.5191 22.5607 21.5668 22.516 21.6132 22.4726L21.6252 22.4614C21.6407 22.4459 21.6213 22.4303 21.5942 22.4264ZM21.244 22.173C21.2436 22.1731 21.2433 22.1732 21.243 22.1734C21.2426 22.1739 21.2426 22.1749 21.2426 22.1768C21.2188 22.1931 21.1953 22.2097 21.1719 22.2263C21.1114 22.2691 21.0512 22.3117 20.9869 22.3483C20.9255 22.3829 20.8625 22.4128 20.7989 22.4429C20.7623 22.4603 20.7255 22.4778 20.6886 22.4963C20.6886 22.4963 20.6886 22.4924 20.6848 22.4924C20.677 22.4807 20.6615 22.4768 20.646 22.4846C20.5608 22.5314 20.4872 22.5937 20.4214 22.6599C20.4097 22.6677 20.3981 22.6794 20.3904 22.6911L20.3555 22.7262V22.7301C20.34 22.7457 20.3245 22.7612 20.3052 22.7846C20.3011 22.7887 20.298 22.7927 20.2951 22.7966C20.2895 22.8039 20.2843 22.8107 20.2742 22.8158C20.2587 22.8236 20.2199 22.8236 20.2238 22.8002V22.7963C20.2122 22.8041 20.1967 22.8119 20.1851 22.8158C20.1793 22.8197 20.1735 22.8226 20.1677 22.8255C20.1618 22.8284 20.156 22.8314 20.1502 22.8353C20.1463 22.8314 20.1386 22.8314 20.1347 22.8314C20.1309 22.8314 20.1231 22.8314 20.1192 22.8353C20.1102 22.8431 20.1012 22.8504 20.0921 22.8578C20.074 22.8725 20.056 22.8872 20.0379 22.9054C19.9914 22.9483 19.9488 22.995 19.9062 23.0457C19.9062 23.0457 19.9062 23.0495 19.9023 23.0495C19.9023 23.0515 19.9013 23.0525 19.9004 23.0534C19.8994 23.0544 19.8984 23.0554 19.8984 23.0573L19.8907 23.0651C19.8892 23.0666 19.8883 23.0681 19.8875 23.0694C19.8863 23.0714 19.8853 23.0729 19.8829 23.0729L19.8791 23.0768C19.8752 23.0846 19.8713 23.0924 19.8636 23.1002C19.8597 23.1041 19.852 23.108 19.8442 23.108C19.8403 23.1041 19.8365 23.1002 19.8365 23.0963C19.8345 23.0944 19.8336 23.0924 19.8326 23.0905C19.8316 23.0885 19.8307 23.0866 19.8287 23.0846C19.8248 23.0788 19.8219 23.0729 19.819 23.0671C19.8161 23.0612 19.8132 23.0554 19.8094 23.0495V23.0457C19.8094 23.0437 19.8084 23.0418 19.8074 23.0398C19.8064 23.0379 19.8055 23.0359 19.8055 23.034L19.8752 22.9521L19.8791 22.9483C19.8829 22.9444 19.8868 22.9395 19.8907 22.9346C19.8946 22.9298 19.8984 22.9249 19.9023 22.921C19.9081 22.9132 19.9149 22.9054 19.9217 22.8976C19.9285 22.8898 19.9352 22.882 19.9411 22.8742C19.943 22.8703 19.9449 22.8674 19.9469 22.8645C19.9488 22.8616 19.9507 22.8586 19.9527 22.8547C19.9759 22.8236 19.9992 22.7924 20.0224 22.7573V22.7534C20.0263 22.7496 20.0301 22.7457 20.0301 22.7379C20.0418 22.7223 20.0534 22.7067 20.0611 22.6911L20.0844 22.6444V22.6405L20.0882 22.6366C20.0882 22.6346 20.0892 22.6336 20.0902 22.6327C20.0912 22.6317 20.0921 22.6307 20.0921 22.6288C20.096 22.619 20.0999 22.6103 20.1037 22.6015C20.1076 22.5928 20.1115 22.584 20.1154 22.5742V22.5703L20.1192 22.5547C20.1212 22.5509 20.1221 22.547 20.1231 22.5431C20.1241 22.5392 20.125 22.5353 20.127 22.5314V22.5275C20.1289 22.5216 20.1299 22.5158 20.1309 22.5099C20.1318 22.5041 20.1328 22.4983 20.1347 22.4924C20.1347 22.4885 20.1347 22.4807 20.1309 22.4768C20.1541 22.434 20.1851 22.395 20.2199 22.356C20.218 22.356 20.2161 22.357 20.2141 22.358C20.213 22.3586 20.2119 22.3591 20.2108 22.3595C20.21 22.3598 20.2092 22.3599 20.2083 22.3599C20.1911 22.3708 20.1762 22.3852 20.1611 22.4C20.1491 22.4117 20.1369 22.4236 20.1231 22.434C20.0999 22.4535 20.0534 22.4223 20.0844 22.3989C20.1037 22.3833 20.1192 22.3677 20.1347 22.3522C20.1347 22.3522 20.1347 22.3483 20.1386 22.3483C20.154 22.3343 20.1689 22.3184 20.1838 22.3025C20.2064 22.2784 20.2292 22.254 20.2548 22.2353C20.2819 22.2158 20.3013 22.2002 20.3245 22.1807C20.3284 22.1768 20.3323 22.1729 20.3362 22.1729C20.3516 22.1535 20.3671 22.134 20.3865 22.1145C20.3865 22.1145 20.3904 22.1145 20.3904 22.1106C20.5234 21.9816 20.7103 21.9361 20.9011 21.8896C21.0214 21.8603 21.1433 21.8307 21.2542 21.7794C21.3168 21.7534 21.3866 21.7636 21.4556 21.7738C21.5104 21.7818 21.5647 21.7898 21.6144 21.7794C21.6803 21.7794 21.75 21.7794 21.8158 21.8262C21.6627 21.9077 21.5165 22.001 21.3719 22.0933C21.33 22.12 21.2882 22.1467 21.2464 22.1729C21.2454 22.1729 21.2446 22.1729 21.244 22.173ZM21.7281 20.5851C21.7099 20.5872 21.6982 20.5885 21.7082 20.5986C21.7741 20.6649 21.9097 20.6415 22.0026 20.5909C22.0685 20.5441 22.1382 20.5441 22.2273 20.5441C22.2505 20.5441 22.2505 20.5012 22.2505 20.4779C22.3164 20.5012 22.3629 20.5012 22.4287 20.5012C22.9671 20.3883 23.4862 20.2753 23.982 20.0259C23.4803 19.6383 22.8618 19.4656 22.256 19.2965C22.1555 19.2684 22.0554 19.2405 21.9561 19.2116C21.978 19.2116 21.9998 19.2189 22.0217 19.2262C22.066 19.241 22.1109 19.2559 22.1576 19.2116C22.0961 19.1626 22.0277 19.1532 21.9599 19.144C21.9038 19.1363 21.8482 19.1286 21.7973 19.0987C21.8026 19.0987 21.809 19.0999 21.8158 19.1012C21.839 19.1057 21.8685 19.1114 21.8864 19.0753C21.7688 19.0161 21.6511 18.996 21.5323 18.9757C21.4712 18.9653 21.4098 18.9548 21.348 18.9389C21.4603 18.9155 21.5301 18.8259 21.5301 18.7129C21.5301 18.6896 21.4836 18.6896 21.4603 18.6896C21.1931 18.8259 21.011 19.0753 20.8987 19.3675C20.9999 19.4271 21.1091 19.4202 21.2161 19.4134C21.2769 19.4096 21.3369 19.4058 21.3945 19.4142C21.3437 19.4625 21.2703 19.4756 21.1997 19.4882C21.1734 19.4929 21.1475 19.4975 21.1233 19.5038C21.0536 19.5194 20.9878 19.5701 21.011 19.6168C21.0265 19.6363 21.042 19.6441 21.0614 19.648C21.011 19.6636 20.9645 19.687 20.9219 19.7298C20.9857 19.78 21.0514 19.7703 21.1163 19.7608C21.1421 19.757 21.1677 19.7532 21.1931 19.7532C21.1931 19.7815 21.2116 19.7911 21.2309 19.8011C21.2409 19.8062 21.251 19.8115 21.2589 19.8194C21.1466 19.8623 21.0575 19.9558 21.0342 20.022C21.0065 20.0895 20.9552 20.1334 20.9044 20.1768C20.8701 20.2062 20.8361 20.2353 20.8096 20.2714V20.3415C20.7347 20.4078 20.6578 20.4671 20.582 20.5255C20.4262 20.6455 20.2748 20.7621 20.155 20.9298C20.1782 20.9298 20.1782 20.9532 20.1782 20.9766C20.1568 21.0089 20.1263 21.0313 20.0974 21.0525C20.0636 21.0774 20.0319 21.1006 20.0194 21.1363C20.0194 21.1597 20.0194 21.1831 20.0426 21.1831C20.1848 21.1361 20.3077 21.057 20.4283 20.9794C20.5377 20.9091 20.6452 20.84 20.7631 20.7973C20.8595 20.7742 20.9434 20.7305 21.0253 20.6878C21.0948 20.6516 21.1628 20.6162 21.2357 20.5947C21.2918 20.5831 21.3538 20.5665 21.4158 20.5499C21.4778 20.5334 21.5397 20.5168 21.5959 20.5051C21.5959 20.5285 21.5959 20.5519 21.6192 20.5519H21.7973C21.7864 20.5784 21.7518 20.5824 21.7281 20.5851Z" fill="#000091"/>
<path d="M45.0001 12H32.0967C32.0967 12 32.1201 12.0039 32.2176 12.0546C32.3229 12.1092 32.4594 12.1834 32.5413 12.2263C32.7091 12.3121 32.869 12.4213 32.9743 12.5891C33.0211 12.6554 33.0874 12.7919 33.0445 12.8817C32.9977 12.9948 32.9743 13.1782 32.8612 13.2211C32.7247 13.2913 32.5452 13.2913 32.3853 13.2679C32.2956 13.2679 32.2059 13.2445 32.1123 13.2211C32.4516 13.3576 32.7715 13.5176 32.9977 13.8336C33.0211 13.8804 33.1108 13.8999 33.2006 13.8999C33.224 13.8999 33.224 13.9467 33.224 13.9662C33.1771 14.013 33.1342 14.0364 33.1576 14.1027H33.224C33.3371 14.0559 33.3137 13.8296 33.4736 13.8999C33.5867 13.9662 33.6335 14.1261 33.5633 14.2393C33.4736 14.329 33.3839 14.3992 33.2903 14.4655C33.2669 14.5124 33.2669 14.5787 33.2903 14.6255C33.3566 14.7152 33.38 14.8049 33.4034 14.8986C33.4736 15.0585 33.4931 15.238 33.5633 15.3979C33.653 15.7373 33.7427 16.0767 33.7232 16.42C33.7232 16.5995 33.6335 16.7594 33.6998 16.9428C33.7466 17.1222 33.8598 17.2588 33.9495 17.4187C34.0392 17.5553 34.1289 17.645 34.1991 17.7815C34.3356 18.0078 34.5853 18.2341 34.4722 18.5072C34.4059 18.6671 34.1562 18.6437 33.9963 18.7334C33.8598 18.8466 33.9729 19.0299 34.0431 19.143C34.1562 19.3459 33.9066 19.4824 33.7466 19.5527C33.7935 19.6229 33.8832 19.5995 33.9066 19.6424C33.93 19.7555 34.0431 19.8218 33.9729 19.9389C33.8832 20.0754 33.6101 20.1417 33.7466 20.3485C33.8364 20.5085 33.7779 20.684 33.7232 20.8479C33.6569 21.0507 33.4736 21.1404 33.3137 21.1873C33.1771 21.2341 33.0172 21.2341 32.8846 21.2107C32.8378 21.1873 32.7949 21.1638 32.7481 21.1638C32.3619 21.117 31.9757 21.0078 31.5935 21.0078C31.4804 21.0312 31.3672 21.0507 31.2775 21.0975C31.1761 21.1717 31.0825 21.2536 31.0045 21.3394C31.0045 21.3394 31.0045 21.3394 31.0006 21.3433C30.985 21.3628 30.9655 21.3784 30.9499 21.3979C30.9421 21.4096 30.9304 21.4213 30.9226 21.433C30.9148 21.4408 30.9109 21.4486 30.9031 21.4564C30.8368 21.5384 30.7782 21.6281 30.7236 21.7178C30.7197 21.7256 30.7158 21.7295 30.7119 21.7334C30.708 21.7451 30.7002 21.7529 30.6924 21.7646C30.6183 21.9012 30.5637 22.0416 30.5208 22.1821C30.3648 22.7009 30.435 23.1456 30.5442 23.2549C30.5754 23.2861 31.2931 23.5085 31.7924 23.7308C32.0265 23.8362 32.1903 23.9142 32.3268 24H44.9962V12H45.0001Z" fill="#E1000F"/>
<path d="M32.8631 16.3748C32.9526 16.3982 33.0888 16.3982 33.0888 16.4449C33.0421 16.6241 32.7736 16.6709 32.6375 16.854H32.5674C32.5013 16.9008 32.5208 17.0138 32.4546 17.0138C32.3885 16.9904 32.3185 17.0138 32.2523 17.0371C32.3418 17.1267 32.4546 17.1969 32.5908 17.1735C32.6141 17.1735 32.6569 17.2202 32.6569 17.2631C32.6569 17.2631 32.6803 17.2631 32.7036 17.2397C32.727 17.2397 32.7503 17.2397 32.7503 17.2631V17.3527C32.6842 17.4423 32.5674 17.3995 32.478 17.4189C32.6608 17.4657 32.8398 17.4657 32.9993 17.4189C33.1355 17.3722 32.9993 17.1462 33.0888 17.0332C33.0421 17.0332 33.0888 16.9631 33.0421 16.9631C33.0888 16.9164 33.1316 16.8501 33.1782 16.8267C33.2249 16.8267 33.2911 16.8034 33.3144 16.7566C33.3144 16.7099 33.2249 16.6904 33.2444 16.6436C33.3806 16.554 33.4934 16.4177 33.4467 16.2813C33.4233 16.2112 33.2444 16.2112 33.1316 16.1683C33.0187 16.1254 32.8826 16.1683 32.7464 16.1917C32.6336 16.1917 32.5208 16.2618 32.4079 16.2813C32.2484 16.328 32.1123 16.4177 31.98 16.5073C32.1395 16.441 32.2951 16.4177 32.478 16.3709C32.6141 16.3748 32.727 16.3436 32.8631 16.3748Z" fill="#808080"/>
<path d="M13.236 39V30.6H15.36L17.412 34.128L19.464 30.6H21.588V39H19.884V32.976L18.012 36.12H16.812L14.94 32.976V39H13.236ZM24.1124 39V30.6H25.8164V39H24.1124ZM28.3443 39V30.6H30.5283L34.2843 36.672V30.6H35.9883V39H33.8043L30.0483 32.928V39H28.3443ZM38.5176 39V30.6H40.2216V39H38.5176ZM41.9934 37.836L43.2294 36.696C43.7334 37.344 44.4054 37.728 45.0894 37.728C45.7614 37.728 46.1694 37.368 46.1694 36.768C46.1694 35.22 42.3534 35.64 42.3534 32.796C42.3534 31.464 43.4574 30.36 45.0654 30.36C46.3254 30.36 47.2854 30.924 48.0054 31.776L46.7574 32.904C46.2654 32.268 45.7134 31.848 45.0774 31.848C44.4774 31.848 44.0814 32.232 44.0814 32.736C44.0814 34.26 47.8974 33.828 47.8974 36.708C47.8734 38.292 46.6494 39.24 45.1014 39.24C43.6854 39.24 42.7374 38.724 41.9934 37.836ZM48.9415 32.148V30.6H55.8295V32.148H53.2375V39H51.5335V32.148H48.9415ZM59.1982 29.88L57.6502 28.26H59.4022L60.7582 29.88H59.1982ZM57.5062 39V30.6H62.4022V32.016H59.2102V34.008H61.9222V35.424H59.2102V37.584H62.4022V39H57.5062ZM64.5622 39V30.6H67.1302C68.9782 30.6 70.1182 31.548 70.1182 33.108C70.1182 34.128 69.6262 34.884 68.7622 35.28L71.3902 39H69.3862L67.1422 35.604H66.2662V39H64.5622ZM67.2262 32.016H66.2662V34.188H67.2262C67.9462 34.188 68.3662 33.768 68.3662 33.084C68.3662 32.448 67.9462 32.016 67.2262 32.016ZM72.6496 39V30.6H77.5456V32.016H74.3536V34.008H77.0656V35.424H74.3536V37.584H77.5456V39H72.6496ZM13.236 51V42.6H16.536C19.2 42.6 21 44.532 21 46.8C21 49.068 19.2 51 16.536 51H13.236ZM16.56 44.148H14.94V49.452H16.56C18.12 49.452 19.248 48.288 19.248 46.8C19.248 45.3 18.12 44.148 16.56 44.148ZM22.8233 51V42.6H27.7193V44.016H24.5273V46.008H27.2393V47.424H24.5273V49.584H27.7193V51H22.8233ZM33.1738 51V42.6H34.8778V49.452H38.0698V51H33.1738ZM39.3017 46.056H37.8857L38.9657 42.6H40.6937L39.3017 46.056ZM45.4041 41.88H43.8561L45.2121 40.26H46.9641L45.4041 41.88ZM42.2001 51V42.6H47.0961V44.016H43.9041V46.008H46.6161V47.424H43.9041V49.584H47.0961V51H42.2001ZM49.2562 51V42.6H52.5562C55.2202 42.6 57.0202 44.532 57.0202 46.8C57.0202 49.068 55.2202 51 52.5562 51H49.2562ZM52.5802 44.148H50.9602V49.452H52.5802C54.1402 49.452 55.2682 48.288 55.2682 46.8C55.2682 45.3 54.1402 44.148 52.5802 44.148ZM63.7972 47.856V42.6H65.5012V47.712C65.5012 49.92 64.2052 51.24 62.0932 51.24C59.9932 51.24 58.6972 49.92 58.6972 47.712V42.6H60.4012V47.856C60.4012 48.984 61.0372 49.644 62.1052 49.644C63.1492 49.644 63.7972 48.984 63.7972 47.856ZM71.6358 49.644C72.5958 49.644 73.3518 49.176 73.8318 48.492L75.1758 49.524C74.4078 50.568 73.1598 51.24 71.6358 51.24C68.9838 51.24 67.1718 49.2 67.1718 46.8C67.1718 44.4 68.9838 42.36 71.6358 42.36C73.1598 42.36 74.4078 43.044 75.1758 44.064L73.8318 45.108C73.3518 44.424 72.5958 43.956 71.6358 43.956C70.0518 43.956 68.9238 45.192 68.9238 46.8C68.9238 48.408 70.0518 49.644 71.6358 49.644ZM75.72 51L78.9 42.6H81.132L84.312 51H82.5L81.696 48.816H78.336L77.532 51H75.72ZM78.864 47.364H81.168L80.016 44.208L78.864 47.364ZM84.0814 44.148V42.6H90.9694V44.148H88.3774V51H86.6734V44.148H84.0814ZM92.646 51V42.6H94.35V51H92.646ZM100.622 42.36C103.262 42.36 105.074 44.4 105.074 46.8C105.074 49.2 103.262 51.24 100.622 51.24C97.9699 51.24 96.1579 49.2 96.1579 46.8C96.1579 44.4 97.9699 42.36 100.622 42.36ZM100.622 49.644C102.194 49.644 103.322 48.408 103.322 46.8C103.322 45.192 102.194 43.956 100.622 43.956C99.0379 43.956 97.9099 45.192 97.9099 46.8C97.9099 48.408 99.0379 49.644 100.622 49.644ZM106.887 51V42.6H109.071L112.827 48.672V42.6H114.531V51H112.347L108.591 44.928V51H106.887ZM13.236 63V54.6H15.42L19.176 60.672V54.6H20.88V63H18.696L14.94 56.928V63H13.236ZM22.3533 63L25.5333 54.6H27.7653L30.9453 63H29.1333L28.3293 60.816H24.9693L24.1653 63H22.3533ZM25.4973 59.364H27.8013L26.6493 56.208L25.4973 59.364ZM30.7147 56.148V54.6H37.6027V56.148H35.0107V63H33.3067V56.148H30.7147ZM39.2793 63V54.6H40.9833V63H39.2793ZM47.2552 54.36C49.8952 54.36 51.7072 56.4 51.7072 58.8C51.7072 61.2 49.8952 63.24 47.2552 63.24C44.6032 63.24 42.7912 61.2 42.7912 58.8C42.7912 56.4 44.6032 54.36 47.2552 54.36ZM47.2552 61.644C48.8272 61.644 49.9552 60.408 49.9552 58.8C49.9552 57.192 48.8272 55.956 47.2552 55.956C45.6712 55.956 44.5432 57.192 44.5432 58.8C44.5432 60.408 45.6712 61.644 47.2552 61.644ZM53.5204 63V54.6H55.7044L59.4604 60.672V54.6H61.1644V63H58.9804L55.2244 56.928V63H53.5204ZM62.6377 63L65.8177 54.6H68.0497L71.2297 63H69.4177L68.6137 60.816H65.2537L64.4497 63H62.6377ZM65.7817 59.364H68.0857L66.9337 56.208L65.7817 59.364ZM72.7068 63V54.6H74.4108V61.452H77.6028V63H72.7068ZM79.2824 63V54.6H84.1784V56.016H80.9864V58.008H83.6984V59.424H80.9864V61.584H84.1784V63H79.2824ZM13.236 75V66.6H18.132V68.016H14.94V70.008H17.652V71.424H14.94V73.584H18.132V75H13.236ZM19.6039 68.148V66.6H26.4919V68.148H23.8999V75H22.1959V68.148H19.6039ZM31.4629 75V66.6H34.7629C37.4269 66.6 39.2269 68.532 39.2269 70.8C39.2269 73.068 37.4269 75 34.7629 75H31.4629ZM34.7869 68.148H33.1669V73.452H34.7869C36.3469 73.452 37.4749 72.288 37.4749 70.8C37.4749 69.3 36.3469 68.148 34.7869 68.148ZM41.0502 75V66.6H45.9462V68.016H42.7542V70.008H45.4662V71.424H42.7542V73.584H45.9462V75H41.0502ZM51.4007 75V66.6H53.1047V73.452H56.2967V75H51.4007ZM57.2836 75L60.4636 66.6H62.6956L65.8756 75H64.0636L63.2596 72.816H59.8996L59.0956 75H57.2836ZM60.4276 71.364H62.7316L61.5796 68.208L60.4276 71.364ZM72.4831 74.304C72.4831 76.164 71.6191 77.088 69.8671 77.088C69.5911 77.088 69.3631 77.088 69.1951 77.04V75.54C69.3151 75.564 69.4591 75.576 69.6271 75.576C70.3831 75.576 70.7791 75.252 70.7791 74.388V66.6H72.4831V74.304ZM75.0196 75V66.6H79.9156V68.016H76.7236V70.008H79.4356V71.424H76.7236V73.584H79.9156V75H75.0196ZM86.9826 71.856V66.6H88.6866V71.712C88.6866 73.92 87.3906 75.24 85.2786 75.24C83.1786 75.24 81.8826 73.92 81.8826 71.712V66.6H83.5866V71.856C83.5866 72.984 84.2226 73.644 85.2906 73.644C86.3346 73.644 86.9826 72.984 86.9826 71.856ZM90.9833 75V66.6H93.1673L96.9233 72.672V66.6H98.6273V75H96.4433L92.6873 68.928V75H90.9833ZM101.157 75V66.6H106.053V68.016H102.861V70.008H105.573V71.424H102.861V73.584H106.053V75H101.157ZM107.457 73.836L108.693 72.696C109.197 73.344 109.869 73.728 110.553 73.728C111.225 73.728 111.633 73.368 111.633 72.768C111.633 71.22 107.817 71.64 107.817 68.796C107.817 67.464 108.921 66.36 110.529 66.36C111.789 66.36 112.749 66.924 113.469 67.776L112.221 68.904C111.729 68.268 111.177 67.848 110.541 67.848C109.941 67.848 109.545 68.232 109.545 68.736C109.545 70.26 113.361 69.828 113.361 72.708C113.337 74.292 112.113 75.24 110.565 75.24C109.149 75.24 108.201 74.724 107.457 73.836ZM114.489 73.836L115.725 72.696C116.229 73.344 116.901 73.728 117.585 73.728C118.257 73.728 118.665 73.368 118.665 72.768C118.665 71.22 114.849 71.64 114.849 68.796C114.849 67.464 115.953 66.36 117.561 66.36C118.821 66.36 119.781 66.924 120.501 67.776L119.253 68.904C118.761 68.268 118.209 67.848 117.573 67.848C116.973 67.848 116.577 68.232 116.577 68.736C116.577 70.26 120.393 69.828 120.393 72.708C120.369 74.292 119.145 75.24 117.597 75.24C116.181 75.24 115.233 74.724 114.489 73.836ZM122.36 75V66.6H127.256V68.016H124.064V70.008H126.776V71.424H124.064V73.584H127.256V75H122.36Z" fill="#161616"/>
<path fill-rule="evenodd" clip-rule="evenodd" d="M43.18 96.614L42.0638 97.6339H41.7758L42.4359 96.47H43.18V96.614ZM42.3759 100.561H42.1359C41.8358 100.921 41.4998 101.209 41.1757 101.209C40.8397 101.209 40.6717 101.005 40.6717 100.561C40.6717 100.381 40.6957 100.189 40.7317 100.021L42.688 99.3734C43.072 98.4615 42.6159 98.0655 42.0759 98.0655C41.1517 98.0655 40.0956 99.6854 40.0956 100.981C40.0956 101.593 40.3836 101.929 40.8397 101.929C41.3678 101.917 41.9198 101.401 42.3759 100.561ZM41.7046 98.5938C41.9686 98.5938 42.1966 98.7978 42.0766 99.2657L40.8644 99.5897C41.0565 99.0138 41.4165 98.5938 41.7046 98.5938ZM37.8886 98.6175H38.5367L37.5045 101.449C37.4085 101.689 37.5405 101.929 37.7925 101.929C38.5247 101.929 39.4008 101.305 39.7368 100.417H39.5568C39.2928 100.789 38.7167 101.197 38.2846 101.269L39.2328 98.6175H40.2049L40.3249 98.2095H39.3768L39.7368 97.1896H39.3648L38.6927 98.2095L37.8886 98.3175V98.6175ZM36.9878 98.0782C37.1198 98.0782 37.2998 98.2222 37.2158 98.4862L36.0516 101.306C36.3517 101.258 36.6637 100.97 36.8438 100.706H37.0358C36.7597 101.414 36.1356 101.93 35.5956 101.93C35.4636 101.93 35.2715 101.786 35.3675 101.522L36.4477 98.7022C36.1477 98.7502 35.8356 99.0381 35.6556 99.3021H35.4756C35.7516 98.5822 36.4237 98.0782 36.9878 98.0782ZM37.3246 97.3579C37.5647 97.3579 37.7687 97.1659 37.7687 96.9139C37.7687 96.674 37.5647 96.47 37.3246 96.47C37.0726 96.47 36.8806 96.674 36.8806 96.9139C36.8806 97.1539 37.0846 97.3579 37.3246 97.3579ZM32.0797 99.6981C32.3437 99.1221 32.2477 98.8581 32.0797 98.8581C31.9357 98.8581 31.7676 99.0141 31.5996 99.3021H31.4196C31.6956 98.6902 32.0557 98.0782 32.4517 98.0782C32.7878 98.0782 32.9078 98.4142 32.9078 98.7862V99.3141C32.9618 99.2513 33.0144 99.1896 33.0658 99.1293L33.0667 99.1282L33.0675 99.1273C33.5745 98.5324 33.9617 98.0782 34.408 98.0782C34.7561 98.0782 34.9361 98.2942 34.9361 98.6182C34.9361 98.8102 34.8761 99.0501 34.7441 99.3021L33.7479 101.306C34.048 101.258 34.36 100.97 34.54 100.706H34.7201C34.444 101.426 33.7719 101.93 33.2079 101.93C32.9558 101.93 32.8118 101.666 32.9198 101.45L34.072 99.2301C34.204 98.9781 34.228 98.8102 34.024 98.8102C33.7479 98.8102 33.0998 99.2661 32.7518 99.6861L31.9957 101.678C31.9117 101.882 31.8277 101.93 31.6356 101.93C31.3236 101.93 31.1676 101.726 31.3116 101.402L32.0797 99.6981ZM31.2987 98.9294C31.4307 98.4735 31.3587 98.0655 31.0106 98.0655C30.5766 98.0655 30.4407 98.3521 30.02 99.2391L29.9905 99.3014V98.7735C29.9905 98.4015 29.8705 98.0655 29.5344 98.0655C29.1384 98.0655 28.7783 98.6775 28.5023 99.2894H28.6823C28.8743 99.0134 29.0544 98.8455 29.1984 98.8455C29.3664 98.8455 29.4624 99.1094 29.1984 99.6854L28.4303 101.389C28.2863 101.713 28.4423 101.917 28.7543 101.917C28.9464 101.917 29.0304 101.869 29.1144 101.665L29.8705 99.6734C30.0865 99.4094 30.2785 99.1814 30.5186 98.9294H31.2987ZM27.5064 99.2657C27.6264 98.7978 27.3984 98.5938 27.1344 98.5938C26.8463 98.5938 26.4863 99.0138 26.2942 99.5897L27.5064 99.2657ZM27.8057 100.561H27.5657C27.2656 100.921 26.9296 101.209 26.6055 101.209C26.2695 101.209 26.1015 101.005 26.1015 100.561C26.1015 100.381 26.1255 100.189 26.1615 100.021L28.1178 99.3734C28.5018 98.4615 28.0458 98.0655 27.5057 98.0655C26.5815 98.0655 25.5254 99.6854 25.5254 100.981C25.5254 101.593 25.8134 101.929 26.2695 101.929C26.7976 101.917 27.3497 101.401 27.8057 100.561ZM23.9665 98.6175H23.3184V98.3175L24.1225 98.2095L24.7946 97.1896H25.1666L24.8066 98.2095H25.7547L25.6347 98.6175H24.6626L23.7144 101.269C24.1465 101.197 24.7226 100.789 24.9866 100.417H25.1666C24.8306 101.305 23.9545 101.929 23.2224 101.929C22.9703 101.929 22.8383 101.689 22.9343 101.449L23.9665 98.6175ZM19.8865 100.814C19.8865 99.9377 20.8586 98.7617 21.3987 98.7617C21.5187 98.7617 21.6387 98.7737 21.7347 98.8097L21.1707 100.322C20.8466 100.718 20.3425 101.198 20.1025 101.198C19.9705 101.198 19.8865 101.078 19.8865 100.814ZM22.5632 97.8858L22.8632 97.9098L21.8191 100.31C21.567 100.886 21.675 101.15 21.8191 101.15C21.9631 101.15 22.1431 100.982 22.3351 100.706H22.5152C22.2391 101.318 21.8791 101.93 21.483 101.93C21.147 101.93 20.9429 101.57 21.0029 100.922L21.0269 100.694L20.9616 100.785C20.5317 101.386 20.1427 101.93 19.7428 101.93C19.3947 101.93 19.2147 101.714 19.2147 101.39C19.2147 99.9977 20.7389 98.2218 22.1671 98.2218H22.2271L22.5632 97.8858ZM19.814 98.9294C19.946 98.4735 19.874 98.0655 19.526 98.0655C19.0919 98.0655 18.956 98.3521 18.5354 99.2391L18.5058 99.3014V98.7735C18.5058 98.4015 18.3858 98.0655 18.0498 98.0655C17.6537 98.0655 17.2937 98.6775 17.0176 99.2894H17.1976C17.3897 99.0134 17.5697 98.8455 17.7017 98.8455C17.8697 98.8455 17.9658 99.1094 17.7017 99.6854L16.9336 101.401C16.7896 101.725 16.9456 101.929 17.2576 101.929C17.4497 101.929 17.5337 101.881 17.6177 101.677L18.3738 99.6854C18.5898 99.4214 18.7819 99.1934 19.0219 98.9414H19.814V98.9294ZM14.8684 101.569L14.7964 101.785H12L12.072 101.557C12.9361 101.401 13.0802 101.329 13.4402 100.357L14.2203 98.2688C14.5684 97.2968 14.4964 97.2248 13.7403 97.0688L13.8123 96.8528H17.4488L17.2328 98.0168H16.9687C16.9687 97.3208 16.8967 97.1408 16.2366 97.1408H16.0686C15.4205 97.1408 15.3365 97.2368 15.1565 97.7408L14.6404 99.1447H15.3965C15.9006 99.1447 16.0926 98.8327 16.3206 98.4247H16.5847L15.9606 100.129H15.6965C15.7565 99.6127 15.7565 99.4087 15.2885 99.4087H14.5324L14.1843 100.369C13.8081 101.368 13.9156 101.388 14.8115 101.558C14.8301 101.561 14.8491 101.565 14.8684 101.569Z" fill="black"/>
<path fill-rule="evenodd" clip-rule="evenodd" d="M17.2448 87.4341L16.1286 88.2385V88.2505H15.8405L16.5006 87.29H17.2448V87.4341ZM25.0472 93.0648L26.8355 88.3105L26.7755 88.2384L25.5393 88.3825V88.5266L25.7793 88.7066C25.9843 88.8661 25.93 89.0147 25.76 89.4805L25.7313 89.5591L24.3631 93.2089C24.2551 93.425 24.3991 93.6891 24.6511 93.6891C25.2152 93.6891 25.8153 93.1728 26.0914 92.4645H25.9114C25.7193 92.7286 25.3353 93.0168 25.0472 93.0648ZM33.2438 89.403L34.36 88.3825V88.2384H33.6159L32.9558 89.403H33.2438ZM33.315 92.3204H33.5551C33.111 93.1728 32.5589 93.6891 32.0308 93.6891C31.5747 93.6891 31.2867 93.3529 31.2867 92.7406C31.2867 91.444 32.3429 89.8232 33.267 89.8232C33.7951 89.8232 34.2632 90.2194 33.8791 91.1318L31.9108 91.7801C31.8748 91.9482 31.8508 92.1403 31.8508 92.3204C31.8508 92.7646 32.0188 92.9687 32.3549 92.9687C32.6789 92.9687 33.015 92.6806 33.315 92.3204ZM33.2544 91.0238C33.3745 90.5676 33.1464 90.3635 32.8824 90.3635C32.6063 90.3635 32.2463 90.7837 32.0422 91.348L33.2544 91.0238ZM29.7258 90.3872H29.0777V90.0871L29.8818 89.979L30.554 88.9585H30.926L30.566 89.979H31.5141L31.3941 90.3872H30.4219L29.4738 93.0405C29.9058 92.9685 30.4819 92.5603 30.746 92.1881H30.926C30.59 93.0765 29.7138 93.7008 28.9817 93.7008C28.7296 93.7008 28.5976 93.4607 28.6936 93.2206L29.7258 90.3872ZM28.4055 90.2431C28.4775 89.979 28.3095 89.8349 28.1655 89.8349C27.6014 89.8349 26.9292 90.3512 26.6532 91.0595H26.8332C27.0133 90.7954 27.3253 90.5072 27.6254 90.4592L26.5452 93.2806C26.4492 93.5447 26.6412 93.6888 26.7732 93.6888C27.3133 93.6888 27.9374 93.1726 28.2135 92.4642H28.0334C27.8534 92.7283 27.5413 93.0165 27.2413 93.0645L28.4055 90.2431ZM28.9585 88.6826C28.9585 88.9228 28.7544 89.1269 28.5144 89.1269C28.2744 89.1269 28.0703 88.9228 28.0703 88.6826C28.0703 88.4425 28.2624 88.2384 28.5144 88.2384C28.7544 88.2384 28.9585 88.4425 28.9585 88.6826ZM22.8987 90.5315C22.3586 90.5315 21.3864 91.7081 21.3864 92.5846C21.3864 92.8487 21.4704 92.9687 21.6145 92.9687C21.8425 92.9687 22.3466 92.4885 22.6706 92.0923L23.2347 90.5796C23.1267 90.5435 23.0187 90.5315 22.8987 90.5315ZM24.3632 89.6791L24.0632 89.6551L23.7271 89.9913H23.6671C22.2389 89.9913 20.7146 91.7682 20.7146 93.1609C20.7146 93.485 20.8946 93.7011 21.2427 93.7011C21.6426 93.7011 22.0316 93.1571 22.4616 92.5558L22.5269 92.4645L22.5029 92.6926C22.4429 93.3409 22.6469 93.7011 22.983 93.7011C23.3791 93.7011 23.7391 93.0888 24.0152 92.4765H23.8351C23.6431 92.7527 23.4631 92.9207 23.3191 92.9207C23.175 92.9207 23.067 92.6566 23.3191 92.0803L24.3632 89.6791ZM18.3135 93.5692C17.7974 93.7733 17.4373 94.0134 17.4373 94.3856C17.4373 94.7337 17.7614 94.8778 18.4335 94.8778C19.3337 94.8778 19.8258 94.6137 19.8258 94.2655C19.8258 94.1094 19.6217 94.0374 19.0816 93.8573C18.7336 93.7493 18.4815 93.6532 18.3135 93.5692ZM18.9128 92.0924C18.6728 92.0924 18.5888 91.8883 18.5888 91.6722C18.5888 90.9758 18.9248 90.1114 19.4649 90.1114C19.705 90.1114 19.789 90.3155 19.789 90.5316C19.777 91.24 19.4409 92.0924 18.9128 92.0924ZM19.3701 93.2209C20.0302 93.425 20.4383 93.581 20.4383 94.0373C20.4383 94.6255 19.3581 95.3219 18.0499 95.3099C17.2937 95.3099 16.6456 95.1058 16.6456 94.6135C16.6456 94.1453 17.0777 93.7611 18.1339 93.449C17.9899 93.3529 17.9299 93.2329 17.9299 93.0648C17.9299 92.7766 18.1939 92.5485 18.65 92.3324C18.2059 92.2724 17.9178 91.9362 17.9178 91.444C17.9178 90.6876 18.542 89.8232 19.5261 89.8232C19.7302 89.8232 19.9102 89.8712 20.0542 89.9673H21.1344L21.0144 90.3755H20.3783C20.4143 90.4835 20.4383 90.6036 20.4383 90.7356C20.4383 91.468 19.8502 92.3084 18.914 92.3564C18.674 92.4885 18.554 92.6686 18.554 92.8127C18.554 92.9822 18.7503 93.0395 19.1842 93.1662C19.2419 93.183 19.3039 93.2011 19.3701 93.2209ZM15.5646 91.1679C16.0327 91.1679 16.0447 91.372 15.9727 91.8883H16.2367L16.8609 90.1834H16.5968C16.3688 90.5916 16.1767 90.9038 15.6726 90.9038H14.6405L15.1446 89.4991C15.3246 88.9949 15.4086 88.8988 16.0567 88.8988H16.5128C17.1729 88.8988 17.2449 89.0789 17.2449 89.7752H17.509L17.725 88.6107H13.8123L13.7403 88.8268C14.4964 88.9829 14.5684 89.0549 14.2204 90.0274L13.4403 92.1284C13.0802 93.1009 12.9362 93.1729 12.06 93.329L12 93.5571H16.3448L17.1249 92.3205H16.8248C16.3208 92.8127 15.8167 93.269 14.8325 93.269C13.75 93.269 13.7693 93.216 14.0941 92.3234C14.115 92.266 14.1372 92.205 14.1604 92.1404L14.5204 91.1799H15.5646V91.1679Z" fill="black"/>
<path fill-rule="evenodd" clip-rule="evenodd" d="M19.1496 80.8876C19.3896 80.8876 19.5936 80.6837 19.5936 80.4438C19.5936 80.2039 19.3896 80 19.1496 80C18.8977 80 18.7057 80.2039 18.7057 80.4438C18.7057 80.6957 18.8977 80.8876 19.1496 80.8876ZM22.7022 82.3986C22.7022 81.8229 22.5583 81.607 22.1503 81.607C21.6464 81.607 21.1785 82.1467 20.7106 82.7944L21.7184 80.0956L21.6584 80.0117L20.4227 80.1556V80.2996L20.6626 80.4795C20.8716 80.6419 20.811 80.8044 20.633 81.2818L20.6146 81.3311L19.5229 84.1858C19.4269 84.4257 19.3189 84.7136 19.3189 84.7856C19.3189 85.1214 19.7748 85.4453 20.1947 85.4453C21.1305 85.4573 22.7022 83.73 22.7022 82.3986ZM33.1042 81.1752L34.22 80.1556V80.0117H33.4761L32.8163 81.1752H33.1042ZM33.1765 84.0899H33.4164C32.9605 84.9415 32.4086 85.4573 31.8807 85.4453C31.4248 85.4453 31.1369 85.1214 31.1369 84.5097C31.1369 83.2143 32.1927 81.595 33.1165 81.595C33.6444 81.595 34.1123 81.9908 33.7284 82.9024L31.7727 83.5501C31.7368 83.7181 31.7128 83.91 31.7128 84.0899C31.7128 84.5337 31.8807 84.7376 32.2167 84.7376C32.5406 84.7376 32.8765 84.4497 33.1765 84.0899ZM33.1153 82.7945C33.2353 82.3387 33.0073 82.1348 32.7434 82.1348C32.4555 82.1348 32.0955 82.5546 31.9036 83.1184L33.1153 82.7945ZM29.5747 82.1595H28.9268V81.8596L29.7306 81.7516L30.4025 80.7321H30.7744L30.4145 81.7516H31.3623L31.2423 82.1595H30.2705L29.3227 84.8103C29.7546 84.7383 30.3305 84.3305 30.5945 83.9587H30.7744C30.4385 84.8463 29.5627 85.47 28.8308 85.47C28.5789 85.47 28.4469 85.2301 28.5429 84.9902L29.5747 82.1595ZM28.5931 82.4713C28.7251 82.0155 28.6531 81.6077 28.3052 81.6077C27.8713 81.6077 27.7354 81.8942 27.3149 82.7809L27.2854 82.8431V82.3154C27.2854 81.9435 27.1654 81.6077 26.8295 81.6077C26.4336 81.6077 26.0736 82.2194 25.7977 82.8311H25.9776C26.1696 82.5553 26.3496 82.3873 26.4815 82.3873C26.6495 82.3873 26.7455 82.6512 26.4815 83.227L25.7137 84.9302C25.5697 85.2541 25.7257 85.458 26.0376 85.458C26.2296 85.458 26.3136 85.41 26.3976 85.2061L27.1534 83.215C27.3694 82.9511 27.5613 82.7232 27.8013 82.4713H28.5931ZM24.7902 82.7945C24.9101 82.3387 24.6822 82.1348 24.4182 82.1348C24.1303 82.1348 23.7823 82.5546 23.5784 83.1184L24.7902 82.7945ZM25.0893 84.0899H24.8494C24.5495 84.4497 24.2135 84.7376 23.8896 84.7376C23.5536 84.7376 23.3857 84.5337 23.3857 84.0899C23.3857 83.91 23.4097 83.7181 23.4457 83.5501L25.4013 82.9024C25.7852 81.9908 25.3293 81.595 24.7894 81.595C23.8656 81.595 22.8098 83.2143 22.8098 84.5097C22.8098 85.1214 23.0977 85.4453 23.5536 85.4453C24.0815 85.4573 24.6334 84.9415 25.0893 84.0899ZM20.0512 84.5461C20.0512 84.702 20.3272 84.882 20.5191 84.882C21.299 84.882 22.0308 83.4786 22.0188 82.6989C22.0188 82.435 21.8869 82.3271 21.7069 82.3271C21.419 82.3271 20.8911 82.7589 20.5551 83.1667L20.2432 84.0064C20.1352 84.2822 20.0512 84.4981 20.0512 84.5461ZM18.7917 81.6077C18.9357 81.6077 19.1036 81.7516 19.0316 82.0155L17.8799 84.8343C18.1798 84.7863 18.4917 84.4984 18.6717 84.2345H18.8517C18.5757 84.9422 17.9518 85.458 17.4119 85.458C17.268 85.458 17.076 85.314 17.172 85.0502L18.2518 82.2314C17.9518 82.2794 17.6399 82.5673 17.4599 82.8311H17.28C17.5559 82.1235 18.2278 81.6077 18.7917 81.6077ZM13.8116 80.3602H16.3911L16.3192 80.5881C15.4433 80.744 15.2994 80.816 14.9394 81.7876L14.1716 83.8986C13.7997 84.9062 13.8956 85.0261 14.5555 85.0261C15.3708 85.0261 15.9053 84.4337 16.3721 83.9164C16.4068 83.878 16.4411 83.84 16.4751 83.8027H16.7751L15.9232 85.314H12L12.072 85.0981C12.9358 84.9422 13.0798 84.8702 13.4397 83.8986L14.2196 81.7756C14.5675 80.804 14.4955 80.732 13.7397 80.5761L13.8116 80.3602Z" fill="black"/>
</svg>
