<svg width="40" height="40" viewBox="0 0 40 40" fill="none" xmlns="http://www.w3.org/2000/svg">
<path fill-rule="evenodd" clip-rule="evenodd" d="M37.5 10.9996C37.2243 10.9996 37 10.7753 37 10.4996C37 10.2239 37.2243 9.99963 37.5 9.99963C37.7757 9.99963 38 10.2239 38 10.4996C38 10.7753 37.7757 10.9996 37.5 10.9996Z" fill="#ECECFE"/>
<path fill-rule="evenodd" clip-rule="evenodd" d="M2.5 29.9996C2.2243 29.9996 2 29.7753 2 29.4996C2 29.2239 2.2243 28.9996 2.5 28.9996C2.7757 28.9996 3 29.2239 3 29.4996C3 29.7753 2.7757 29.9996 2.5 29.9996Z" fill="#ECECFE"/>
<path fill-rule="evenodd" clip-rule="evenodd" d="M36.5 31.9996C36.2243 31.9996 36 31.7753 36 31.4996C36 31.2239 36.2243 30.9996 36.5 30.9996C36.7757 30.9996 37 31.2239 37 31.4996C37 31.7753 36.7757 31.9996 36.5 31.9996Z" fill="#ECECFE"/>
<path d="M16.5 18.9996H14.5C14.2239 18.9996 14 19.2235 14 19.4996V20.4996C14 20.7758 14.2239 20.9996 14.5 20.9996H16.5C16.7761 20.9996 17 20.7758 17 20.4996V19.4996C17 19.2235 16.7761 18.9996 16.5 18.9996Z" fill="#E1000F"/>
<path d="M18.5 18.9996C18.7564 18.9996 18.9678 19.1927 18.9966 19.4413L19 19.4996V19.9996H20.5C20.7564 19.9996 20.9678 20.1927 20.9966 20.4413L21 20.4996C21 20.7561 20.807 20.9674 20.5583 20.9963L20.5 20.9996H18.5C18.2436 20.9996 18.0322 20.8066 18.0034 20.5579L18 20.4996V19.4996C18 19.2235 18.2239 18.9996 18.5 18.9996Z" fill="#E1000F"/>
<path d="M20.5 13.9996C20.7761 13.9996 21 14.2235 21 14.4996C21 14.7561 20.807 14.9674 20.5583 14.9963L20.5 14.9996H19V16.9996H20.5C20.7564 16.9996 20.9678 17.1927 20.9966 17.4413L21 17.4996C21 17.7561 20.807 17.9674 20.5583 17.9963L20.5 17.9996H18.5C18.2436 17.9996 18.0322 17.8066 18.0034 17.5579L18 17.4996V14.4996C18 14.2432 18.193 14.0319 18.4417 14.003L18.5 13.9996H20.5Z" fill="#E1000F"/>
<path d="M20.5 21.9996C20.7761 21.9996 21 22.2235 21 22.4996C21 22.7561 20.807 22.9674 20.5583 22.9963L20.5 22.9996H19V24.9996H19.5V23.9996C19.5 23.7432 19.693 23.5319 19.9417 23.503L20 23.4996H20.5C20.7761 23.4996 21 23.7235 21 23.9996C21 24.2561 20.807 24.4674 20.5583 24.4963L20.5 24.4996V25.4996C20.5 25.7561 20.307 25.9674 20.0583 25.9963L20 25.9996H18.5C18.2436 25.9996 18.0322 25.8066 18.0034 25.5579L18 25.4996V22.4996C18 22.2432 18.193 22.0319 18.4417 22.003L18.5 21.9996H20.5Z" fill="#E1000F"/>
<path fill-rule="evenodd" clip-rule="evenodd" d="M29.3489 13.9996H29.6545C31.226 13.9996 32.5 15.2736 32.5 16.8452V17.8424C32.5 18.5596 32.8035 19.2433 33.3354 19.7244L33.3726 19.758C33.7822 20.1284 33.8139 20.7608 33.4434 21.1704C33.2538 21.38 32.9844 21.4996 32.7018 21.4996H26.3018C25.7495 21.4996 25.3018 21.0519 25.3018 20.4996C25.3018 20.2164 25.422 19.9464 25.6324 19.7567L25.7567 19.6405C26.2313 19.168 26.5 18.5246 26.5 17.8514V16.8486C26.5 15.2751 27.7755 13.9996 29.3489 13.9996ZM29.6545 14.9996H29.3489C28.3278 14.9996 27.5 15.8274 27.5 16.8486V17.8514C27.5 18.8499 27.0765 19.8016 26.3347 20.47L26.3018 20.4996H32.7018L32.5609 20.3683C31.8838 19.7045 31.5 18.7946 31.5 17.8424V16.8452C31.5 15.8259 30.6737 14.9996 29.6545 14.9996Z" fill="#E1000F"/>
<path d="M29.5 22.9996C30.4428 22.9996 31 22.4424 31 21.4996C31 21.2235 30.7761 20.9996 30.5 20.9996C30.2239 20.9996 30 21.2235 30 21.4996C30 21.8902 29.8905 21.9996 29.5 21.9996C29.1095 21.9996 29 21.8902 29 21.4996C29 21.2235 28.7761 20.9996 28.5 20.9996C28.2239 20.9996 28 21.2235 28 21.4996C28 22.4424 28.5572 22.9996 29.5 22.9996Z" fill="#E1000F"/>
<path fill-rule="evenodd" clip-rule="evenodd" d="M10.5 21.9996H16.5C16.7761 21.9996 17 22.2235 17 22.4996V25.4996C17 25.7758 16.7761 25.9996 16.5 25.9996H10.5C10.2239 25.9996 10 25.7758 10 25.4996V22.4996C10 22.2235 10.2239 21.9996 10.5 21.9996ZM16 24.9996V22.9996H11V24.9996H16Z" fill="#000091"/>
<path fill-rule="evenodd" clip-rule="evenodd" d="M10.5 16.9996H12.5C12.7761 16.9996 13 17.2235 13 17.4996V20.4996C13 20.7758 12.7761 20.9996 12.5 20.9996H10.5C10.2239 20.9996 10 20.7758 10 20.4996V17.4996C10 17.2235 10.2239 16.9996 10.5 16.9996ZM12 19.9996V17.9996H11V19.9996H12Z" fill="#000091"/>
<path d="M11.5 13.9996H10.5C10.2239 13.9996 10 14.2235 10 14.4996V15.4996C10 15.7758 10.2239 15.9996 10.5 15.9996H11.5C11.7761 15.9996 12 15.7758 12 15.4996V14.4996C12 14.2235 11.7761 13.9996 11.5 13.9996Z" fill="#000091"/>
<path fill-rule="evenodd" clip-rule="evenodd" d="M16.5 13.9996H13.5C13.2239 13.9996 13 14.2235 13 14.4996V15.9996C13 16.2758 13.2239 16.4996 13.5 16.4996H14.5V17.4996C14.5 17.7561 14.693 17.9674 14.9417 17.9963L15 17.9996H16.5C16.7761 17.9996 17 17.7758 17 17.4996V14.4996C17 14.2235 16.7761 13.9996 16.5 13.9996ZM14 15.4996V14.9996H16V16.9996H15.5V15.9996C15.5 15.7432 15.307 15.5319 15.0583 15.503L15 15.4996H14Z" fill="#000091"/>
<path d="M17.5 4.99963C17.7761 4.99963 18 5.22349 18 5.49963C18 5.77578 17.7761 5.99963 17.5 5.99963H13.5C13.2239 5.99963 13 5.77578 13 5.49963C13 5.22349 13.2239 4.99963 13.5 4.99963H17.5Z" fill="#000091"/>
<path d="M29.5 10.9996C30.8454 10.9996 32.1402 11.3548 33.2773 12.019C33.5158 12.1582 33.5962 12.4644 33.4569 12.7029C33.3177 12.9414 33.0115 13.0218 32.773 12.8825C31.7879 12.3071 30.667 11.9996 29.5 11.9996C25.9101 11.9996 23 14.9098 23 18.4996C23 19.9842 23.4985 21.3912 24.4006 22.5307C24.6188 22.8063 24.574 23.0675 24.3981 23.4183L24.3318 23.5442L24.275 23.6435L24.1726 23.809L24.086 23.9416L23.763 24.4216L23.973 24.3577L24.6442 24.1424L24.9465 24.0489L25.1175 23.9995L25.2671 23.9601C25.6399 23.8683 25.8122 23.8819 26.006 23.9854L26.0802 24.0284C27.0991 24.6601 28.2739 24.9996 29.5 24.9996C33.0899 24.9996 36 22.0895 36 18.4996C36 17.0147 35.5012 15.6073 34.5987 14.4677C34.4273 14.2512 34.4638 13.9368 34.6803 13.7653C34.8968 13.5939 35.2113 13.6304 35.3827 13.8469C36.4239 15.1616 37 16.7873 37 18.4996C37 22.6418 33.6421 25.9996 29.5 25.9996C28.1608 25.9996 26.8723 25.6476 25.7405 24.9907L25.6285 24.9236L25.6082 24.9259C25.5823 24.929 25.552 24.9339 25.5176 24.9406L25.3591 24.9765L25.1738 25.0268L24.7763 25.1501L24.3118 25.2996L23.9788 25.4038L23.7886 25.4599L23.6209 25.5052L23.4735 25.5399C23.0594 25.6279 22.8862 25.5714 22.6641 25.37C22.3648 25.0985 22.4047 24.81 22.595 24.4275L22.6569 24.3091L22.7083 24.218L22.7995 24.0687L22.9204 23.8834L23.2833 23.3422L23.3822 23.1872L23.4551 23.0631L23.493 22.9916L23.3757 22.83C22.526 21.6307 22.0431 20.2047 22.0028 18.7046L22 18.4996C22 14.3575 25.3579 10.9996 29.5 10.9996Z" fill="#000091"/>
<path d="M22.5 2.99963C24.3927 2.99963 25.9345 4.50203 25.998 6.37931L26 6.49963V9.49963C26 9.77578 25.7761 9.99963 25.5 9.99963C25.2436 9.99963 25.0322 9.80661 25.0034 9.55794L25 9.49963V6.49963C25 5.15526 23.9388 4.05872 22.6084 4.00194L22.5 3.99963H8.5C7.15562 3.99963 6.05909 5.06079 6.00231 6.39119L6 6.49963V33.4996C6 34.844 7.06115 35.9405 8.39156 35.9973L8.5 35.9996H22.5C23.8444 35.9996 24.9409 34.9385 24.9977 33.6081L25 33.4996V27.4996C25 27.2235 25.2239 26.9996 25.5 26.9996C25.7564 26.9996 25.9678 27.1927 25.9966 27.4413L26 27.4996V33.4996C26 35.3924 24.4976 36.9342 22.6203 36.9976L22.5 36.9996H8.5C6.60727 36.9996 5.06545 35.4972 5.00203 33.62L5 33.4996V6.49963C5 4.60691 6.50239 3.06508 8.37968 3.00166L8.5 2.99963H22.5Z" fill="#000091"/>
<path d="M20.5 32.9996C20.7761 32.9996 21 33.2235 21 33.4996C21 33.7561 20.807 33.9674 20.5583 33.9963L20.5 33.9996H10.5C10.2239 33.9996 10 33.7758 10 33.4996C10 33.2432 10.193 33.0319 10.4417 33.003L10.5 32.9996H20.5Z" fill="#000091"/>
</svg>
