<svg width="40" height="40" viewBox="0 0 40 40" fill="none" xmlns="http://www.w3.org/2000/svg">
<path fill-rule="evenodd" clip-rule="evenodd" d="M7.5 6.99963C7.2243 6.99963 7 6.77533 7 6.49963C7 6.22391 7.2243 5.99963 7.5 5.99963C7.7757 5.99963 8 6.22391 8 6.49963C8 6.77533 7.7757 6.99963 7.5 6.99963Z" fill="#ECECFE"/>
<path fill-rule="evenodd" clip-rule="evenodd" d="M2.5 34.9996C2.2243 34.9996 2 34.7753 2 34.4996C2 34.2239 2.2243 33.9996 2.5 33.9996C2.7757 33.9996 3 34.2239 3 34.4996C3 34.7753 2.7757 34.9996 2.5 34.9996Z" fill="#ECECFE"/>
<path fill-rule="evenodd" clip-rule="evenodd" d="M37.5 31.9996C37.2243 31.9996 37 31.7753 37 31.4996C37 31.2239 37.2243 30.9996 37.5 30.9996C37.7757 30.9996 38 31.2239 38 31.4996C38 31.7753 37.7757 31.9996 37.5 31.9996Z" fill="#ECECFE"/>
<path fill-rule="evenodd" clip-rule="evenodd" d="M29.5 5.99963C29.2243 5.99963 29 5.77533 29 5.49963C29 5.22391 29.2243 4.99963 29.5 4.99963C29.7757 4.99963 30 5.22391 30 5.49963C30 5.77533 29.7757 5.99963 29.5 5.99963Z" fill="#ECECFE"/>
<path d="M7.00318 18.8007C7.04312 18.3388 7.45444 17.9996 7.92857 17.9996H9.5L9.55831 18.003C9.80698 18.0319 10 18.2432 10 18.4996L9.99664 18.5579C9.96775 18.8066 9.75642 18.9996 9.5 18.9996H8V20.9996H9.5L9.55831 21.003C9.80698 21.0319 10 21.2432 10 21.4996C10 21.7758 9.77614 21.9996 9.5 21.9996H7.92857L7.85428 21.9968C7.38761 21.9617 7 21.5989 7 21.1246V18.8746L7.00318 18.8007Z" fill="#E1000F"/>
<path d="M13.9968 18.8007C13.9569 18.3388 13.5456 17.9996 13.0714 17.9996H11.5L11.4417 18.003C11.193 18.0319 11 18.2432 11 18.4996L11.0034 18.5579C11.0322 18.8066 11.2436 18.9996 11.5 18.9996H13V20.9996H11.5L11.4417 21.003C11.193 21.0319 11 21.2432 11 21.4996C11 21.7758 11.2239 21.9996 11.5 21.9996H13.0714L13.1457 21.9968C13.6124 21.9617 14 21.5989 14 21.1246V18.8746L13.9968 18.8007Z" fill="#E1000F"/>
<path d="M32.0714 17.9996C32.5456 17.9996 32.9569 18.3388 32.9968 18.8007L33 18.8746V21.1246C33 21.5989 32.6124 21.9617 32.1457 21.9968L32.0714 21.9996H30.5C30.2239 21.9996 30 21.7758 30 21.4996C30 21.2432 30.193 21.0319 30.4417 21.003L30.5 20.9996H32V18.9996H30.5C30.2436 18.9996 30.0322 18.8066 30.0034 18.5579L30 18.4996C30 18.2432 30.193 18.0319 30.4417 18.003L30.5 17.9996H32.0714Z" fill="#E1000F"/>
<path d="M26.0032 18.8007C26.0431 18.3388 26.4544 17.9996 26.9286 17.9996H28.5L28.5583 18.003C28.807 18.0319 29 18.2432 29 18.4996L28.9966 18.5579C28.9678 18.8066 28.7564 18.9996 28.5 18.9996H27V20.9996H28.5L28.5583 21.003C28.807 21.0319 29 21.2432 29 21.4996C29 21.7758 28.7761 21.9996 28.5 21.9996H26.9286L26.8543 21.9968C26.3876 21.9617 26 21.5989 26 21.1246V18.8746L26.0032 18.8007Z" fill="#E1000F"/>
<path fill-rule="evenodd" clip-rule="evenodd" d="M7 23.9996C6.44772 23.9996 6 24.4473 6 24.9996V27.9996C6 28.5519 6.44772 28.9996 7 28.9996H9C9.55228 28.9996 10 28.5519 10 27.9996V24.9996C10 24.4473 9.55228 23.9996 9 23.9996H7ZM9 27.9996V24.9996H7V27.9996H9Z" fill="#E1000F"/>
<path fill-rule="evenodd" clip-rule="evenodd" d="M12 23.9996C11.4477 23.9996 11 24.4473 11 24.9996V27.9996C11 28.5519 11.4477 28.9996 12 28.9996H14C14.5523 28.9996 15 28.5519 15 27.9996V24.9996C15 24.4473 14.5523 23.9996 14 23.9996H12ZM14 27.9996V24.9996H12V27.9996H14Z" fill="#E1000F"/>
<path fill-rule="evenodd" clip-rule="evenodd" d="M26 23.9996C25.4477 23.9996 25 24.4473 25 24.9996V27.9996C25 28.5519 25.4477 28.9996 26 28.9996H28C28.5523 28.9996 29 28.5519 29 27.9996V24.9996C29 24.4473 28.5523 23.9996 28 23.9996H26ZM28 27.9996V24.9996H26V27.9996H28Z" fill="#E1000F"/>
<path fill-rule="evenodd" clip-rule="evenodd" d="M31 23.9996C30.4477 23.9996 30 24.4473 30 24.9996V27.9996C30 28.5519 30.4477 28.9996 31 28.9996H33C33.5523 28.9996 34 28.5519 34 27.9996V24.9996C34 24.4473 33.5523 23.9996 33 23.9996H31ZM33 27.9996V24.9996H31V27.9996H33Z" fill="#E1000F"/>
<path d="M17.8536 6.14608C17.6583 5.95082 17.3417 5.95082 17.1464 6.14608L10.1464 13.1461L10.1049 13.1932C9.95234 13.3893 9.9662 13.6729 10.1464 13.8532C10.3417 14.0484 10.6583 14.0484 10.8536 13.8532L17.8536 6.85319L17.8951 6.80608C18.0477 6.60994 18.0338 6.32632 17.8536 6.14608Z" fill="#000091"/>
<path d="M20.2924 7.09401C20.1009 6.95559 19.8338 6.96943 19.6573 7.13553L14.3091 12.1692L14.2661 12.215C14.1077 12.4064 14.113 12.6903 14.2877 12.876L14.3335 12.919C14.5249 13.0773 14.8088 13.0721 14.9944 12.8974L19.9995 8.18613L28.0129 15.7278L28.0769 15.7831C28.253 15.9228 28.4719 15.9996 28.6983 15.9996H33.5L33.5583 15.9963C33.807 15.9674 34 15.7561 34 15.4996C34 15.2235 33.7761 14.9996 33.5 14.9996H28.6983L20.3427 7.13553L20.2924 7.09401Z" fill="#000091"/>
<path d="M35.5 14.9996C35.2436 14.9996 35.0322 15.1927 35.0034 15.4413L35 15.4996V31.9996H30.5C30.2436 31.9996 30.0322 32.1927 30.0034 32.4413L30 32.4996C30 32.7561 30.193 32.9674 30.4417 32.9963L30.5 32.9996H35.5C35.7564 32.9996 35.9678 32.8066 35.9966 32.5579L36 32.4996V15.4996C36 15.2235 35.7761 14.9996 35.5 14.9996Z" fill="#000091"/>
<path d="M10.5 31.9996C10.7761 31.9996 11 32.2235 11 32.4996C11 32.7561 10.807 32.9674 10.5583 32.9963L10.5 32.9996H6.5C6.22386 32.9996 6 32.7758 6 32.4996C6 32.2432 6.19302 32.0319 6.44169 32.003L6.5 31.9996H10.5Z" fill="#000091"/>
<path d="M5 32.4996C5 32.7758 4.77614 32.9996 4.5 32.9996C4.22386 32.9996 4 32.7758 4 32.4996C4 32.2235 4.22386 31.9996 4.5 31.9996C4.77614 31.9996 5 32.2235 5 32.4996Z" fill="#000091"/>
<path fill-rule="evenodd" clip-rule="evenodd" d="M26 30.4996C26 30.2235 25.7761 29.9996 25.5 29.9996H24V22.4996L23.9966 22.4413C23.9678 22.1927 23.7564 21.9996 23.5 21.9996H16.5L16.4417 22.003C16.193 22.0319 16 22.2432 16 22.4996V29.9996H14.5L14.4417 30.003C14.193 30.0319 14 30.2432 14 30.4996C14 30.7758 14.2239 30.9996 14.5 30.9996H25.5L25.5583 30.9963C25.807 30.9674 26 30.7561 26 30.4996ZM20.5 25.4996V29.9996H23V22.9991H17V29.9996H19.5V25.4996C19.5 25.2235 19.7239 24.9996 20 24.9996C20.2564 24.9996 20.4678 25.1927 20.4966 25.4413L20.5 25.4996Z" fill="#000091"/>
<path d="M20.5 14.9996C20.7761 14.9996 21 15.2235 21 15.4996C21 15.7561 20.807 15.9674 20.5583 15.9963L20.5 15.9996H19.5C19.2436 15.9996 19.0322 15.8066 19.0034 15.5579C19.0011 15.5388 19 15.5194 19 15.4996V14.4996C19 14.2235 19.2239 13.9996 19.5 13.9996C19.7564 13.9996 19.9678 14.1927 19.9966 14.4413L20 14.4996V14.9996H20.5Z" fill="#000091"/>
<path fill-rule="evenodd" clip-rule="evenodd" d="M17 14.9996C17 13.3428 18.3431 11.9996 20 11.9996C21.6569 11.9996 23 13.3428 23 14.9996C23 16.6565 21.6569 17.9996 20 17.9996C18.3431 17.9996 17 16.6565 17 14.9996ZM20 12.9996C21.1046 12.9996 22 13.8951 22 14.9996C22 16.1042 21.1046 16.9996 20 16.9996C18.8954 16.9996 18 16.1042 18 14.9996C18 13.8951 18.8954 12.9996 20 12.9996Z" fill="#000091"/>
<path d="M23 20.4996C23 20.2235 22.7761 19.9996 22.5 19.9996H17.5L17.4417 20.003C17.193 20.0319 17 20.2432 17 20.4996C17 20.7758 17.2239 20.9996 17.5 20.9996H22.5L22.5583 20.9963C22.807 20.9674 23 20.7561 23 20.4996Z" fill="#000091"/>
<path d="M28 32.4996C28 32.2235 27.7761 31.9996 27.5 31.9996H12.5L12.4417 32.003C12.193 32.0319 12 32.2432 12 32.4996C12 32.7758 12.2239 32.9996 12.5 32.9996H27.5L27.5583 32.9963C27.807 32.9674 28 32.7561 28 32.4996Z" fill="#000091"/>
<path d="M12.1464 14.1461C12.3417 13.9508 12.6583 13.9508 12.8536 14.1461C13.0338 14.3263 13.0477 14.6099 12.8951 14.8061L12.8536 14.8532L11.8536 15.8532C11.7754 15.9313 11.6741 15.9809 11.5657 15.9953L11.5 15.9996H5V30.4996C5 30.7561 4.80698 30.9674 4.55831 30.9963L4.5 30.9996C4.24358 30.9996 4.03225 30.8066 4.00336 30.5579L4 30.4996V15.4996C4 15.2432 4.19302 15.0319 4.44169 15.003L4.5 14.9996H11.292L12.1464 14.1461Z" fill="#000091"/>
<path d="M33.5 12.9996C33.7761 12.9996 34 13.2235 34 13.4996C34 13.7561 33.807 13.9674 33.5583 13.9963L33.5 13.9996H29.5C29.2239 13.9996 29 13.7758 29 13.4996C29 13.2432 29.193 13.0319 29.4417 13.003L29.5 12.9996H33.5Z" fill="#000091"/>
<path d="M35.5 13.9996C35.7761 13.9996 36 13.7758 36 13.4996C36 13.2235 35.7761 12.9996 35.5 12.9996C35.2239 12.9996 35 13.2235 35 13.4996C35 13.7758 35.2239 13.9996 35.5 13.9996Z" fill="#000091"/>
</svg>
