<svg width="117" height="312" viewBox="0 0 117 312" fill="none" xmlns="http://www.w3.org/2000/svg">
<path d="M101.48 145.709C100.215 146.09 98.9502 146.448 97.6925 146.851C95.3843 147.582 93.1722 146.602 92.5212 144.539C91.8997 142.548 92.9355 141.063 95.6062 140.426C99.0242 139.614 102.501 139.021 105.912 138.18C107.739 137.726 109.433 136.724 111.268 136.395C112.659 136.139 114.494 136.095 115.53 136.804C116.41 137.404 116.809 139.256 116.743 140.521C116.58 143.814 116.062 147.099 115.641 150.378C115.53 151.256 115.493 152.295 114.997 152.938C114.272 153.89 113.162 154.548 112.223 155.338C111.357 154.131 109.863 152.982 109.744 151.702C109.507 149.163 110.033 146.558 110.247 143.821C108.501 143.763 107.421 143.909 107.747 145.958C108.028 147.758 107.244 149.185 105.683 150.29C97.6038 156.019 89.9022 162.37 81.3869 167.36C75.4388 170.843 68.4549 172.724 61.7817 174.853C58.3194 175.958 54.5241 176.521 50.8842 176.499C44.1075 176.455 38.3739 174.246 36.3986 166.709C30.8129 167.843 25.4344 168.941 20.0486 170.016C15.0622 171.012 10.0684 171.795 5.08201 169.973C4.91925 169.914 4.69733 169.973 4.54936 169.892C2.7812 168.875 0.169629 168.026 0.865058 165.59C1.61967 162.956 4.16464 163.724 6.17695 164.309C11.8292 165.963 17.2964 164.39 22.7933 163.417C26.4258 162.773 30.0139 161.836 33.6612 161.302C35.5773 161.024 36.2802 160.146 36.4577 158.397C37.3899 149.17 42.8868 142.863 50.248 137.917C53.5697 135.685 57.5574 135.356 61.4562 135.546C65.3847 135.729 67.4709 139.351 66.9087 143.141C65.3551 153.641 57.2244 157.98 49.0642 162.334C46.793 163.548 44.3368 164.426 41.925 165.473C42.6056 168.575 44.248 170.214 47.2517 170.638C53.7103 171.553 59.873 170.353 65.8951 168.216C73.4117 165.553 80.7433 162.465 87.1427 157.629C92.0773 153.904 96.8639 149.99 101.71 146.163C101.628 146.017 101.547 145.87 101.466 145.724L101.48 145.709ZM41.7104 158.617C48.8793 157.08 62.0925 149.031 60.9457 140.565C53.6141 138.648 42.2061 149.682 41.7104 158.617Z" fill="#CACAFB"/>
</svg>
